<?xml version="1.0" encoding="UTF-8" standalone="no"?>
<svg
   xmlns:dc="http://purl.org/dc/elements/1.1/"
   xmlns:cc="http://creativecommons.org/ns#"
   xmlns:rdf="http://www.w3.org/1999/02/22-rdf-syntax-ns#"
   xmlns:svg="http://www.w3.org/2000/svg"
   xmlns="http://www.w3.org/2000/svg"
   xmlns:xlink="http://www.w3.org/1999/xlink"
   xmlns:sodipodi="http://sodipodi.sourceforge.net/DTD/sodipodi-0.dtd"
   xmlns:inkscape="http://www.inkscape.org/namespaces/inkscape"
   viewBox="0 0 576 512"
   version="1.1"
   id="svg4"
   sodipodi:docname="eye.svg.2020_10_08_16_23_00.0.svg"
   inkscape:version="0.92.3 (2405546, 2018-03-11)">
  <metadata
     id="metadata10">
    <rdf:RDF>
      <cc:Work
         rdf:about="">
        <dc:format>image/svg+xml</dc:format>
        <dc:type
           rdf:resource="http://purl.org/dc/dcmitype/StillImage" />
      </cc:Work>
    </rdf:RDF>
  </metadata>
  <defs
     id="defs8">
    <clipPath
       clipPathUnits="userSpaceOnUse"
       id="clipPath819">
      <use
         x="0"
         y="0"
         xlink:href="#g815"
         id="use821"
         width="100%"
         height="100%" />
    </clipPath>
    <clipPath
       clipPathUnits="userSpaceOnUse"
       id="clipPath830">
      <use
         x="0"
         y="0"
         xlink:href="#g826"
         id="use832"
         width="100%"
         height="100%" />
    </clipPath>
  </defs>
  <sodipodi:namedview
     pagecolor="#ffffff"
     bordercolor="#666666"
     borderopacity="1"
     objecttolerance="10"
     gridtolerance="10"
     guidetolerance="10"
     inkscape:pageopacity="0"
     inkscape:pageshadow="2"
     inkscape:window-width="640"
     inkscape:window-height="480"
     id="namedview6"
     showgrid="false"
     inkscape:zoom="2.887"
     inkscape:cx="214.4"
     inkscape:cy="251.8"
     inkscape:current-layer="svg4" />
  <!-- Font Awesome Free 5.15.1 by @fontawesome - https://fontawesome.com License - https://fontawesome.com/license/free (Icons: CC BY 4.0, Fonts: SIL OFL 1.1, Code: MIT License) -->
  <g
     id="g815"
     inkscape:label="Clip">
    <g
       id="g828"
       clip-path="url(#clipPath830)">
      <g
         inkscape:label="Clip"
         id="g826">
        <path
           style="fill:#12073b;fill-opacity:1"
           inkscape:connector-curvature="0"
           id="path2"
           d="M 572.5,181.4 C 518.3,75.6 410.9,4 288,4 C 165.1,4 57.68,75.6 3.48,181.4 A 32.35,32.35 0 0 0 3.48,210.6 C 57.71,316.4 165.1,388 288,388 C 410.9,388 518.3,316.4 572.5,210.6 A 32.35,32.35 0 0 0 572.5,181.4 Z M 288,340 A 144,144 0 1 1 432,196 A 143.9,143.9 0 0 1 288,340 Z M 288,100 A 95.31,95.31 0 0 0 262.7,103.8 A 47.85,47.85 0 0 1 195.8,170.7 A 95.78,95.78 0 1 0 288,100 Z" />
      </g>
    </g>
  </g>
  <text
     xml:space="preserve"
     style="font-style:normal;font-variant:normal;font-weight:normal;font-stretch:normal;font-size:114.8421px;line-height:1.25;font-family:sans-serif;-inkscape-font-specification:'sans-serif, Normal';font-variant-ligatures:normal;font-variant-caps:normal;font-variant-numeric:normal;font-feature-settings:normal;text-align:center;letter-spacing:0px;word-spacing:0px;writing-mode:lr-tb;text-anchor:middle;fill:#12073b;fill-opacity:1;stroke:none;stroke-width:3.5888;"
     x="288"
     y="489.5"
     id="text14"><tspan
       sodipodi:role="line"
       id="tspan12"
       x="288"
       y="489.5"
       style="font-style:normal;font-variant:normal;font-weight:normal;font-stretch:normal;font-family:Chilanka;-inkscape-font-specification:Chilanka;stroke-width:3.5888;fill:#12073b;fill-opacity:1;">Note That</tspan></text>
</svg>
